<svg width="26" height="19" viewBox="0 0 26 19" fill="none" xmlns="http://www.w3.org/2000/svg">
<path d="M16.2916 16.214L16.4879 13.9389C16.5144 13.5941 16.822 13.2866 17.1667 13.26L19.4418 13.0638C19.8714 12.9206 20.0782 12.4274 19.8767 12.0138L19.4047 11.0751C19.2933 10.847 18.9857 10.6561 18.7311 10.6561L16.3181 10.6508C16.1431 10.6561 15.9045 10.5554 15.7825 10.4334L14.2711 8.92194C14.0483 8.6992 14.1067 8.42873 14.3984 8.30676L18.1266 6.82713C18.7099 6.59379 18.8266 6.04225 18.3811 5.59677L17.697 4.91264C17.3417 4.55732 16.6682 4.41413 16.2015 4.60505L11.9588 6.2915C11.8369 6.33923 11.6512 6.30211 11.5558 6.20665L9.96479 4.61566C9.46628 4.11715 8.51169 3.89441 7.83817 4.11184C7.59952 4.19139 7.4139 4.37701 7.33435 4.61566C7.11692 5.28918 7.34496 6.24908 7.84347 6.74759L9.43446 8.33858C9.52992 8.43404 9.56704 8.61965 9.51931 8.74163L7.83817 12.979C7.64195 13.4404 7.78513 14.1139 8.14046 14.4692L8.82458 15.1533C9.27006 15.5988 9.8216 15.4821 10.0549 14.8988L11.5346 11.1705C11.6459 10.8789 11.927 10.8205 12.1498 11.0433L13.6612 12.5547C13.7832 12.6767 13.8839 12.9153 13.8839 13.085L13.8892 15.498C13.8892 15.7526 14.0748 16.0549 14.3082 16.1716L15.2469 16.6435C15.6499 16.8557 16.1484 16.6542 16.2916 16.214Z" stroke="#282828" stroke-opacity="0.9" stroke-width="1.3" stroke-linecap="round" stroke-linejoin="round"/>
</svg>
