<svg enable-background="new 0 0 122.88 61.11" viewBox="0 0 122.88 61.11" xmlns="http://www.w3.org/2000/svg"><path clip-rule="evenodd" d="m65.22 0h26.54 6.63c.38 0 .52.34.68.68l2.66 5.53c.16.34-.31.68-.68.68h-45.12c-2.95.01 2.09-6.89 9.29-6.89zm-41.39 45.74v3.74h3.74c-.45-1.83-1.9-3.29-3.74-3.74zm3.74 6.19h-3.74v3.74c1.84-.45 3.29-1.9 3.74-3.74zm-6.18 3.74v-3.74h-3.74c.45 1.84 1.9 3.29 3.74 3.74zm-3.75-6.18h3.74v-3.74c-1.83.45-3.28 1.9-3.74 3.74zm72.41-3.75v3.74h3.74c-.45-1.83-1.9-3.29-3.74-3.74zm3.74 6.19h-3.74v3.74c1.84-.45 3.29-1.9 3.74-3.74zm-6.18 3.74v-3.74h-3.74c.44 1.84 1.89 3.29 3.74 3.74zm-3.75-6.18h3.74v-3.74c-1.84.45-3.29 1.9-3.74 3.74zm5.8-36.72h3.52c5.08.23 7.17.05 9.19 1.59 2.5 1.91 3.48 10.35 4.52 14.25.07.26-.23.5-.5.5h-15.51c-.27 0-.47-.22-.5-.5l-1.22-15.35c-.02-.26.23-.49.5-.49zm-23.57.09h-11.5c-5.25 0-13.89 8.63-16.15 15.61-.11.34.29.65.65.65h25.18c.36 0 .6-.29.65-.65l1.83-14.96c.03-.36-.31-.65-.66-.65zm4.98-.06h14.07c.27 0 .48.23.5.5l1.07 15.32c.02.27-.23.5-.5.5h-16.97c-.27 0-.53-.23-.5-.5l1.83-15.32c.03-.28.22-.5.5-.5zm-48.46 27.51c5.74 0 10.4 4.66 10.4 10.4s-4.66 10.4-10.4 10.4-10.4-4.66-10.4-10.4 4.66-10.4 10.4-10.4zm-20.8.47c.53-.24 1.11-.35 1.74-.34-.03-3.28.19-6.14.95-8.17.28-1.17.79-2.02 1.47-2.64 2.14-1.91 21.25-3.59 25.28-4.11 4.95-4.84 10.46-9.27 16.33-13.46 1.63-1.38 3.96-2.06 6.9-2.13l46.41-.04c3.51-.02 6.21 1.48 7.93 4.85l3.87 11.15.88-.24v-4.34c-.16-1.45.41-2.17 1.52-2.35h5.2c1.43.06 2.44.78 2.6 2.85v15.42c.01 1.59-.57 2.63-2.04 2.85h-4.83c-.48.11-.33.48-.37.99v5.26c-.35 3.88-1.41 6.88-4.52 7.27h-9.41c.2-4.56-.66-8.29-2.75-11.08-7.59-10.14-24.06-4.1-22.95 11.11h-40.44c.34-4.86-.58-8.55-2.59-11.2-7.57-9.99-25.18-4.6-23.1 11.51h-6.25c-3.77 0-5-11.75-1.83-13.16zm87.02-.47c5.74 0 10.4 4.66 10.4 10.4s-4.66 10.4-10.4 10.4-10.4-4.66-10.4-10.4 4.65-10.4 10.4-10.4z" fill-rule="evenodd"/></svg>