<svg width="19" height="19" viewBox="0 0 19 19" fill="none" xmlns="http://www.w3.org/2000/svg">
<path d="M17 9.5C17 5.36 13.64 2 9.5 2C5.36 2 2 5.36 2 9.5C2 13.64 5.36 17 9.5 17" stroke="#808080" stroke-width="1.5" stroke-linecap="round" stroke-linejoin="round"/>
<path d="M6.49995 2.75H7.24995C5.78745 7.13 5.78745 11.87 7.24995 16.25H6.49995" stroke="#808080" stroke-width="1.5" stroke-linecap="round" stroke-linejoin="round"/>
<path d="M11.75 2.75C12.4775 4.94 12.845 7.22 12.845 9.5" stroke="#808080" stroke-width="1.5" stroke-linecap="round" stroke-linejoin="round"/>
<path d="M2.75 12.5V11.75C4.94 12.4775 7.22 12.845 9.5 12.845" stroke="#808080" stroke-width="1.5" stroke-linecap="round" stroke-linejoin="round"/>
<path d="M2.75 7.24995C7.13 5.78745 11.87 5.78745 16.25 7.24995" stroke="#808080" stroke-width="1.5" stroke-linecap="round" stroke-linejoin="round"/>
<path d="M14.15 16.55C15.4755 16.55 16.55 15.4755 16.55 14.15C16.55 12.8245 15.4755 11.75 14.15 11.75C12.8245 11.75 11.75 12.8245 11.75 14.15C11.75 15.4755 12.8245 16.55 14.15 16.55Z" stroke="#808080" stroke-width="1.5" stroke-linecap="round" stroke-linejoin="round"/>
<path d="M17 17L16.25 16.25" stroke="#808080" stroke-width="1.5" stroke-linecap="round" stroke-linejoin="round"/>
</svg>
