<svg width="64" height="12" viewBox="0 0 64 12" fill="none" xmlns="http://www.w3.org/2000/svg">
<path d="M2.125 5.91699C1.9248 6.11719 1.82471 6.36377 1.82471 6.65674C1.82471 6.94482 1.9248 7.18896 2.125 7.38916C2.22754 7.4917 2.33984 7.56982 2.46191 7.62354C2.58887 7.67236 2.72803 7.69678 2.87939 7.69678C3.17236 7.69678 3.41895 7.59424 3.61914 7.38916C3.7168 7.2915 3.79004 7.18164 3.83887 7.05957C3.89258 6.93262 3.91943 6.79834 3.91943 6.65674C3.91943 6.51025 3.89258 6.37598 3.83887 6.25391C3.79004 6.13184 3.7168 6.01953 3.61914 5.91699C3.41895 5.7168 3.16992 5.61426 2.87207 5.60938C2.72559 5.61426 2.58887 5.64355 2.46191 5.69727C2.33984 5.74609 2.22754 5.81934 2.125 5.91699ZM1.20215 5.01611C1.31445 4.89893 1.43164 4.79883 1.55371 4.71582C1.68066 4.62793 1.8125 4.55713 1.94922 4.50342C2.22266 4.38623 2.51807 4.32764 2.83545 4.32764C3.04541 4.32764 3.24561 4.35449 3.43604 4.4082C3.62646 4.45703 3.80713 4.53271 3.97803 4.63525C4.15381 4.73291 4.31738 4.85986 4.46875 5.01611C4.69336 5.24072 4.86182 5.48975 4.97412 5.76318C5.09131 6.03662 5.1499 6.33203 5.1499 6.64941C5.1499 7.28418 4.92285 7.82861 4.46875 8.28271C4.35156 8.39502 4.22949 8.49512 4.10254 8.58301C3.98047 8.66602 3.85107 8.73682 3.71436 8.79541C3.58252 8.84912 3.44092 8.89062 3.28955 8.91992C3.14307 8.94434 2.9917 8.95654 2.83545 8.95654C2.51807 8.95654 2.22266 8.90039 1.94922 8.78809C1.85645 8.75391 1.76611 8.7124 1.67822 8.66357C1.59521 8.60986 1.51221 8.55127 1.4292 8.48779C1.35107 8.42432 1.27539 8.35596 1.20215 8.28271C0.972656 8.05322 0.801758 7.8042 0.689453 7.53564C0.577148 7.26221 0.520996 6.9668 0.520996 6.64941C0.520996 6.33203 0.577148 6.03662 0.689453 5.76318C0.801758 5.48975 0.972656 5.24072 1.20215 5.01611ZM9.80811 2.69434C10.106 3.53418 10.7749 3.9541 11.8149 3.9541C12.4399 3.9541 12.8696 3.72461 13.104 3.26562C13.3726 2.74805 13.5068 1.896 13.5068 0.709473L14.8252 0.716797C14.8203 1.08301 14.8081 1.4248 14.7886 1.74219C14.6958 2.99219 14.4321 3.89062 13.9976 4.4375C13.519 5.0332 12.8013 5.32861 11.8442 5.32373C11.1851 5.32373 10.6748 5.20898 10.3135 4.97949L10.3208 5.03076C10.4819 6.25635 10.5625 7.4917 10.5625 8.73682V10.9121H9.25146V8.71484C9.25146 5.4873 8.7876 2.93359 7.85986 1.05371L9.06104 0.628906L9.80811 2.69434ZM17.9893 0.628906C18.9854 2.81641 19.4834 5.51904 19.4834 8.73682V10.9121H18.1724V8.71484C18.1724 5.4873 17.7085 2.93359 16.7808 1.05371L17.9893 0.628906ZM21.8559 7.565V6.395H25.4859V7.565H21.8559ZM28.0454 11.0586L26.8076 10.4287C28.3701 7.29395 29.5151 4.07617 30.2427 0.775391H31.4658C32.1836 4.07129 33.3286 7.2915 34.9009 10.436L33.6631 11.0586C32.3447 8.22656 31.4072 5.57031 30.8506 3.08984C30.2988 5.58496 29.3638 8.24121 28.0454 11.0586ZM37.7061 8.51709C37.7061 9.20557 37.9844 9.5498 38.541 9.5498C39.249 9.5498 39.7666 8.78076 40.0938 7.24268L41.002 7.25C41.2656 8.80273 41.7661 9.5791 42.5034 9.5791C43.0161 9.5791 43.2725 9.22266 43.2725 8.50977C43.2725 6.92773 42.2593 5.11865 40.2329 3.08252C38.5483 5.3042 37.7061 7.11572 37.7061 8.51709ZM38.4312 10.9121C37.0933 10.9121 36.4243 10.1138 36.4243 8.51709C36.4243 6.78857 37.3643 4.66211 39.2441 2.1377L39.2515 2.12305L39.2368 2.1084L38.8413 1.74219L39.7495 0.628906L40.6724 1.50049C43.2603 4.04443 44.5542 6.35889 44.5542 8.44385C44.5542 10.0894 43.9072 10.9121 42.6133 10.9121C41.6465 10.9121 40.958 10.3481 40.5479 9.22021C40.1719 10.3481 39.4663 10.9121 38.4312 10.9121ZM54.1636 1.25879C52.5767 4.36914 51.4316 7.58691 50.7285 10.9121H49.5054C48.7778 7.61133 47.6328 4.39355 46.0703 1.25879L47.3081 0.628906C48.6265 3.46094 49.5615 6.11963 50.1133 8.60498C50.6699 6.10986 51.6074 3.45117 52.9258 0.628906L54.1636 1.25879ZM62.8208 0.892578L62.5059 2.15234C62.1299 2.00098 61.7393 1.92529 61.334 1.92529C60.8311 1.92529 60.4087 2.0498 60.0669 2.29883C59.5005 2.72363 59.1831 3.26318 59.1147 3.91748C59.0903 4.13721 59.2856 4.35449 59.7007 4.56934C60.0474 4.75 60.5259 4.84033 61.1362 4.84033C61.8198 4.84033 62.4595 4.71826 63.0552 4.47412L63.2236 5.75586C62.6182 6.02441 61.9736 6.15869 61.29 6.15869H61.2827C59.9351 6.15381 58.9683 5.7998 58.3823 5.09668L58.397 5.17725C58.5679 6.37842 58.6533 7.56494 58.6533 8.73682V10.9121H57.3423V8.71484C57.3423 5.4873 56.8784 2.93359 55.9507 1.05371L57.1592 0.628906C57.4277 1.41016 57.7256 2.28662 58.0527 3.2583L58.1626 2.89209C58.3774 2.1792 58.7412 1.61035 59.2539 1.18555C59.7812 0.746094 60.4136 0.528809 61.1509 0.533691C61.7417 0.533691 62.2983 0.65332 62.8208 0.892578Z" fill="black"/>
</svg>
