<svg width="17" height="17" viewBox="0 0 17 17" fill="none" xmlns="http://www.w3.org/2000/svg">
<path d="M12.72 4.27998L4.89334 12.1066C4.60001 12.4 4.10668 12.36 3.86668 12.0133C3.04001 10.8066 2.55334 9.37998 2.55334 7.91331V4.98665C2.55334 4.43998 2.96668 3.81998 3.47334 3.61331L7.18668 2.09331C8.02668 1.74665 8.96001 1.74665 9.80001 2.09331L12.5 3.19331C12.94 3.37331 13.0533 3.94665 12.72 4.27998Z" fill="#444444"/>
<path d="M13.3467 5.19333C13.78 4.82667 14.44 5.14 14.44 5.70667V7.91333C14.44 11.1733 12.0733 14.2267 8.83998 15.12C8.61998 15.18 8.37998 15.18 8.15332 15.12C7.20665 14.8533 6.32665 14.4067 5.57332 13.82C5.25332 13.5733 5.21998 13.1067 5.49998 12.82C6.95332 11.3333 11.2067 7 13.3467 5.19333Z" fill="#444444"/>
</svg>
