<svg width="24" height="25" viewBox="0 0 24 25" fill="none" xmlns="http://www.w3.org/2000/svg">
<path d="M20.4198 12.87C21.2898 13.22 21.8297 14.25 21.6297 15.16L21.2197 17.02C20.5097 20.22 17.9997 22.5 14.3797 22.5H9.61974C5.99974 22.5 3.48974 20.22 2.77974 17.02L2.36974 15.16C2.16974 14.25 2.70973 13.22 3.57973 12.87L4.99974 12.3L10.5098 10.09C11.4698 9.70999 12.5297 9.70999 13.4897 10.09L18.9997 12.3L20.4198 12.87Z" stroke="#282828" stroke-opacity="0.9" stroke-width="1.5" stroke-linecap="round" stroke-linejoin="round"/>
<path d="M12 22.5V10.5" stroke="#282828" stroke-opacity="0.9" stroke-width="1.5" stroke-linecap="round" stroke-linejoin="round"/>
<path d="M19 8.5V12.3L13.49 10.09C12.53 9.71 11.47 9.71 10.51 10.09L5 12.3V8.5C5 6.85 6.35 5.5 8 5.5H16C17.65 5.5 19 6.85 19 8.5Z" stroke="#282828" stroke-opacity="0.9" stroke-width="1.5" stroke-linecap="round" stroke-linejoin="round"/>
<path d="M14.5 5.5H9.5V3.5C9.5 2.95 9.95 2.5 10.5 2.5H13.5C14.05 2.5 14.5 2.95 14.5 3.5V5.5Z" stroke="#282828" stroke-opacity="0.9" stroke-width="1.5" stroke-linecap="round" stroke-linejoin="round"/>
</svg>
